<mxfile host="app.diagrams.net" modified="2022-08-24T19:59:53.639Z" agent="5.0 (X11; Linux x86_64) AppleWebKit/537.36 (KHTML, like Gecko) Chrome/103.0.5060.134 Safari/537.36" etag="hebbljGVuSV-3v94GGgv" version="20.2.7" type="github">
  <diagram id="5zT1T4fjgx7TizqdU40n" name="Page-1">
    <mxGraphModel dx="1422" dy="803" grid="1" gridSize="10" guides="1" tooltips="1" connect="1" arrows="1" fold="1" page="0" pageScale="1" pageWidth="827" pageHeight="1169" math="0" shadow="0">
      <root>
        <mxCell id="0" />
        <mxCell id="1" parent="0" />
        <mxCell id="vltONLb1W5Q0OZcUy4Jd-1" value="" style="rounded=1;whiteSpace=wrap;html=1;fontSize=19;" vertex="1" parent="1">
          <mxGeometry x="360" y="280" width="200" height="80" as="geometry" />
        </mxCell>
        <mxCell id="vltONLb1W5Q0OZcUy4Jd-2" value="" style="rounded=1;whiteSpace=wrap;html=1;fontSize=19;" vertex="1" parent="1">
          <mxGeometry x="360" y="80" width="200" height="80" as="geometry" />
        </mxCell>
        <mxCell id="vltONLb1W5Q0OZcUy4Jd-3" value="" style="rounded=1;whiteSpace=wrap;html=1;fontSize=19;" vertex="1" parent="1">
          <mxGeometry x="640" y="160" width="200" height="80" as="geometry" />
        </mxCell>
        <mxCell id="vltONLb1W5Q0OZcUy4Jd-4" value="" style="rounded=1;whiteSpace=wrap;html=1;fontSize=19;" vertex="1" parent="1">
          <mxGeometry x="680" y="280" width="200" height="80" as="geometry" />
        </mxCell>
        <mxCell id="vltONLb1W5Q0OZcUy4Jd-5" value="" style="rounded=1;whiteSpace=wrap;html=1;fontSize=19;" vertex="1" parent="1">
          <mxGeometry x="640" y="400" width="200" height="80" as="geometry" />
        </mxCell>
        <mxCell id="vltONLb1W5Q0OZcUy4Jd-6" value="" style="rounded=1;whiteSpace=wrap;html=1;fontSize=19;" vertex="1" parent="1">
          <mxGeometry x="360" y="480" width="200" height="80" as="geometry" />
        </mxCell>
        <mxCell id="vltONLb1W5Q0OZcUy4Jd-7" value="" style="rounded=1;whiteSpace=wrap;html=1;fontSize=19;" vertex="1" parent="1">
          <mxGeometry x="80" y="400" width="200" height="80" as="geometry" />
        </mxCell>
        <mxCell id="vltONLb1W5Q0OZcUy4Jd-8" value="" style="rounded=1;whiteSpace=wrap;html=1;fontSize=19;" vertex="1" parent="1">
          <mxGeometry x="40" y="280" width="200" height="80" as="geometry" />
        </mxCell>
        <mxCell id="vltONLb1W5Q0OZcUy4Jd-9" value="" style="rounded=1;whiteSpace=wrap;html=1;fontSize=19;" vertex="1" parent="1">
          <mxGeometry x="80" y="160" width="200" height="80" as="geometry" />
        </mxCell>
        <mxCell id="vltONLb1W5Q0OZcUy4Jd-10" value="" style="endArrow=none;html=1;rounded=0;fontSize=19;entryX=0.5;entryY=1;entryDx=0;entryDy=0;strokeWidth=2;" edge="1" parent="1" target="vltONLb1W5Q0OZcUy4Jd-2">
          <mxGeometry width="50" height="50" relative="1" as="geometry">
            <mxPoint x="460" y="280" as="sourcePoint" />
            <mxPoint x="510" y="230" as="targetPoint" />
          </mxGeometry>
        </mxCell>
        <mxCell id="vltONLb1W5Q0OZcUy4Jd-11" value="" style="endArrow=none;html=1;rounded=0;fontSize=19;entryX=0;entryY=0.5;entryDx=0;entryDy=0;strokeWidth=2;exitX=0.75;exitY=0;exitDx=0;exitDy=0;" edge="1" parent="1" source="vltONLb1W5Q0OZcUy4Jd-1" target="vltONLb1W5Q0OZcUy4Jd-3">
          <mxGeometry width="50" height="50" relative="1" as="geometry">
            <mxPoint x="470" y="290" as="sourcePoint" />
            <mxPoint x="470" y="170" as="targetPoint" />
          </mxGeometry>
        </mxCell>
        <mxCell id="vltONLb1W5Q0OZcUy4Jd-12" value="" style="endArrow=none;html=1;rounded=0;fontSize=19;entryX=0;entryY=0.5;entryDx=0;entryDy=0;strokeWidth=2;exitX=1;exitY=0.5;exitDx=0;exitDy=0;" edge="1" parent="1" source="vltONLb1W5Q0OZcUy4Jd-1" target="vltONLb1W5Q0OZcUy4Jd-4">
          <mxGeometry width="50" height="50" relative="1" as="geometry">
            <mxPoint x="520" y="290" as="sourcePoint" />
            <mxPoint x="650" y="210" as="targetPoint" />
          </mxGeometry>
        </mxCell>
        <mxCell id="vltONLb1W5Q0OZcUy4Jd-13" value="" style="endArrow=none;html=1;rounded=0;fontSize=19;entryX=0;entryY=0.5;entryDx=0;entryDy=0;strokeWidth=2;exitX=0.75;exitY=1;exitDx=0;exitDy=0;" edge="1" parent="1" source="vltONLb1W5Q0OZcUy4Jd-1" target="vltONLb1W5Q0OZcUy4Jd-5">
          <mxGeometry width="50" height="50" relative="1" as="geometry">
            <mxPoint x="570" y="330" as="sourcePoint" />
            <mxPoint x="690" y="330" as="targetPoint" />
          </mxGeometry>
        </mxCell>
        <mxCell id="vltONLb1W5Q0OZcUy4Jd-14" value="" style="endArrow=none;html=1;rounded=0;fontSize=19;entryX=0.5;entryY=1;entryDx=0;entryDy=0;strokeWidth=2;" edge="1" parent="1">
          <mxGeometry width="50" height="50" relative="1" as="geometry">
            <mxPoint x="459.5" y="480" as="sourcePoint" />
            <mxPoint x="459.5" y="360" as="targetPoint" />
          </mxGeometry>
        </mxCell>
        <mxCell id="vltONLb1W5Q0OZcUy4Jd-15" value="" style="endArrow=none;html=1;rounded=0;fontSize=19;entryX=0.25;entryY=1;entryDx=0;entryDy=0;strokeWidth=2;exitX=1;exitY=0.5;exitDx=0;exitDy=0;" edge="1" parent="1" source="vltONLb1W5Q0OZcUy4Jd-7" target="vltONLb1W5Q0OZcUy4Jd-1">
          <mxGeometry width="50" height="50" relative="1" as="geometry">
            <mxPoint x="469.5" y="490" as="sourcePoint" />
            <mxPoint x="469.5" y="370" as="targetPoint" />
          </mxGeometry>
        </mxCell>
        <mxCell id="vltONLb1W5Q0OZcUy4Jd-16" value="" style="endArrow=none;html=1;rounded=0;fontSize=19;entryX=0;entryY=0.5;entryDx=0;entryDy=0;strokeWidth=2;exitX=1;exitY=0.5;exitDx=0;exitDy=0;" edge="1" parent="1" source="vltONLb1W5Q0OZcUy4Jd-8" target="vltONLb1W5Q0OZcUy4Jd-1">
          <mxGeometry width="50" height="50" relative="1" as="geometry">
            <mxPoint x="290" y="450" as="sourcePoint" />
            <mxPoint x="420" y="370" as="targetPoint" />
          </mxGeometry>
        </mxCell>
        <mxCell id="vltONLb1W5Q0OZcUy4Jd-17" value="" style="endArrow=none;html=1;rounded=0;fontSize=19;entryX=0.25;entryY=0;entryDx=0;entryDy=0;strokeWidth=2;exitX=1;exitY=0.5;exitDx=0;exitDy=0;" edge="1" parent="1" source="vltONLb1W5Q0OZcUy4Jd-9" target="vltONLb1W5Q0OZcUy4Jd-1">
          <mxGeometry width="50" height="50" relative="1" as="geometry">
            <mxPoint x="250" y="330" as="sourcePoint" />
            <mxPoint x="370" y="330" as="targetPoint" />
          </mxGeometry>
        </mxCell>
        <mxCell id="vltONLb1W5Q0OZcUy4Jd-20" value="Python Modules" style="text;html=1;strokeColor=none;fillColor=none;align=center;verticalAlign=middle;whiteSpace=wrap;rounded=0;fontSize=19;" vertex="1" parent="1">
          <mxGeometry x="430" y="305" width="60" height="30" as="geometry" />
        </mxCell>
        <mxCell id="vltONLb1W5Q0OZcUy4Jd-21" value="Sys&lt;br&gt;Module" style="text;html=1;strokeColor=none;fillColor=none;align=center;verticalAlign=middle;whiteSpace=wrap;rounded=0;fontSize=19;" vertex="1" parent="1">
          <mxGeometry x="430" y="105" width="60" height="30" as="geometry" />
        </mxCell>
        <mxCell id="vltONLb1W5Q0OZcUy4Jd-22" value="OS&lt;br&gt;Module" style="text;html=1;strokeColor=none;fillColor=none;align=center;verticalAlign=middle;whiteSpace=wrap;rounded=0;fontSize=19;" vertex="1" parent="1">
          <mxGeometry x="710" y="185" width="60" height="30" as="geometry" />
        </mxCell>
        <mxCell id="vltONLb1W5Q0OZcUy4Jd-23" value="Whois&lt;br&gt;Module" style="text;html=1;strokeColor=none;fillColor=none;align=center;verticalAlign=middle;whiteSpace=wrap;rounded=0;fontSize=19;" vertex="1" parent="1">
          <mxGeometry x="750" y="305" width="60" height="30" as="geometry" />
        </mxCell>
        <mxCell id="vltONLb1W5Q0OZcUy4Jd-24" value="Subprocess&lt;br&gt;Module" style="text;html=1;strokeColor=none;fillColor=none;align=center;verticalAlign=middle;whiteSpace=wrap;rounded=0;fontSize=19;" vertex="1" parent="1">
          <mxGeometry x="710" y="425" width="60" height="30" as="geometry" />
        </mxCell>
        <mxCell id="vltONLb1W5Q0OZcUy4Jd-25" value="re&lt;br&gt;Module" style="text;html=1;strokeColor=none;fillColor=none;align=center;verticalAlign=middle;whiteSpace=wrap;rounded=0;fontSize=19;" vertex="1" parent="1">
          <mxGeometry x="430" y="505" width="60" height="30" as="geometry" />
        </mxCell>
        <mxCell id="vltONLb1W5Q0OZcUy4Jd-26" value="Request&amp;nbsp;&lt;br&gt;Module" style="text;html=1;strokeColor=none;fillColor=none;align=center;verticalAlign=middle;whiteSpace=wrap;rounded=0;fontSize=19;" vertex="1" parent="1">
          <mxGeometry x="150" y="425" width="60" height="30" as="geometry" />
        </mxCell>
        <mxCell id="vltONLb1W5Q0OZcUy4Jd-27" value="IP Address&lt;br&gt;Module" style="text;html=1;strokeColor=none;fillColor=none;align=center;verticalAlign=middle;whiteSpace=wrap;rounded=0;fontSize=19;" vertex="1" parent="1">
          <mxGeometry x="90" y="305" width="100" height="30" as="geometry" />
        </mxCell>
        <mxCell id="vltONLb1W5Q0OZcUy4Jd-28" value="Socked&amp;nbsp;&lt;br&gt;Module" style="text;html=1;strokeColor=none;fillColor=none;align=center;verticalAlign=middle;whiteSpace=wrap;rounded=0;fontSize=19;" vertex="1" parent="1">
          <mxGeometry x="130" y="185" width="100" height="30" as="geometry" />
        </mxCell>
      </root>
    </mxGraphModel>
  </diagram>
</mxfile>
